<svg xmlns="http://www.w3.org/2000/svg" version="1.1" xmlns:xlink="http://www.w3.org/1999/xlink" xmlns:svgjs="http://svgjs.dev/svgjs" viewBox="0 0 800 800"><defs><filter id="ssspot-filter" x="-20%" y="-20%" width="140%" height="140%" filterUnits="objectBoundingBox" primitiveUnits="userSpaceOnUse" color-interpolation-filters="sRGB">
	<feTurbulence type="turbulence" baseFrequency="0.022 0.218" numOctaves="2" seed="149" stitchTiles="stitch" x="0%" y="0%" width="100%" height="100%" result="turbulence"></feTurbulence>
	<feGaussianBlur stdDeviation="0 3" x="0%" y="0%" width="100%" height="100%" in="turbulence" edgeMode="duplicate" result="blur"></feGaussianBlur>
	<feDisplacementMap in="SourceGraphic" in2="blur" scale="32" xChannelSelector="R" yChannelSelector="B" x="0%" y="0%" width="100%" height="100%" result="displacementMap"></feDisplacementMap>
</filter></defs><rect width="100%" height="100%" fill="hsl(0, 0%, 11%)"></rect><g fill="hsl(0, 11%, 21%)" filter="url(#ssspot-filter)"><circle r="8.800436879180268" cx="183.77682743895085" cy="103.82308780444762" opacity="0.49081515825302224"></circle><circle r="9.70144406142973" cx="204.74475204455993" cy="600.4888319864345" opacity="0.14052635231053362"></circle><circle r="8.494299390343858" cx="226.95152513029728" cy="776.9879637210008" opacity="0.13162399863258847"></circle><circle r="5.696235202426504" cx="200.79720689046962" cy="153.4432115620582" opacity="0.437479081940757"></circle><circle r="7.685034310864438" cx="390.03181965425586" cy="432.6616441413886" opacity="0.16233033001949193"></circle><circle r="7.615629110345719" cx="134.72172825492433" cy="255.6398552703753" opacity="0.8772806104157221"></circle><circle r="13.665067400260574" cx="701.5623418690265" cy="749.6961787782317" opacity="0.43365830096813807"></circle><circle r="13.449684388999426" cx="296.6210538518633" cy="430.14308319476686" opacity="0.16609697282400632"></circle><circle r="8.23531788160362" cx="18.969124217932055" cy="558.5472028299539" opacity="0.5061504433620093"></circle><circle r="7.97527578354875" cx="248.67643848158986" cy="343.643463084223" opacity="0.3739271626335613"></circle><circle r="5.38152232892476" cx="248.035587217302" cy="504.28956647144133" opacity="0.24688560482564778"></circle><circle r="10.244813536412774" cx="603.3971532318292" cy="41.31285267717494" opacity="0.5210105294322286"></circle><circle r="5.902220382188755" cx="569.6308768250121" cy="471.0409630707448" opacity="0.593141544666268"></circle><circle r="13.20677934553433" cx="705.6895472895382" cy="117.02636074806081" opacity="0.2460078815094779"></circle><circle r="10.235278612579862" cx="112.71652763293909" cy="583.2805264085155" opacity="0.8181485904662207"></circle><circle r="6.706979983638883" cx="44.0939041210223" cy="228.5744251556386" opacity="0.7361430245387343"></circle><circle r="6.738743367698806" cx="335.9817652315838" cy="715.4184426704062" opacity="0.20046890214011132"></circle><circle r="7.850904431185077" cx="740.2146539161855" cy="255.59075384151205" opacity="0.2621591238928611"></circle><circle r="9.80287792750789" cx="485.1046555527669" cy="207.6062403730839" opacity="0.5975635821792503"></circle><circle r="5.8125583317335945" cx="735.4439299709652" cy="333.6002377261724" opacity="0.606011047604551"></circle><circle r="6.861290098943465" cx="15.761569851386428" cy="143.34876569782145" opacity="0.979670063231226"></circle><circle r="6.712294433172783" cx="179.3448043825267" cy="704.0585135934248" opacity="0.4554953954164799"></circle><circle r="5.527210797716229" cx="784.632474765027" cy="529.4771658099263" opacity="0.45995729455291356"></circle><circle r="9.523546323000645" cx="530.0927776256402" cy="212.1997323490609" opacity="0.4479688779453197"></circle><circle r="7.8442200296203595" cx="357.8742189093801" cy="169.81729527569482" opacity="0.14919735392831107"></circle><circle r="4.8847213808127705" cx="598.366888964164" cy="532.5579930920645" opacity="0.6363072701789759"></circle><circle r="5.429844446604869" cx="16.639268336564992" cy="614.1041276948581" opacity="0.7430776243273476"></circle><circle r="8.273272003856043" cx="604.2472768675525" cy="564.6420990609934" opacity="0.5272444709931613"></circle><circle r="9.477995409945354" cx="205.1444881882052" cy="494.0896845551129" opacity="0.1036353402257641"></circle><circle r="9.458820518284972" cx="52.80929561209786" cy="127.68111910128236" opacity="0.1427734497318144"></circle><circle r="6.164616494156169" cx="348.8291269178366" cy="13.811650926683372" opacity="0.3152622318121813"></circle><circle r="7.88498111540348" cx="700.5390449165781" cy="243.88597612543688" opacity="0.43906172417404765"></circle><circle r="8.858940295674355" cx="352.8342026247111" cy="454.15526917693376" opacity="0.6687216745882855"></circle><circle r="13.010547533280409" cx="612.3325713543899" cy="352.7413828499753" opacity="0.8597128849367549"></circle><circle r="7.315686939806575" cx="294.3608318650494" cy="505.99078926199434" opacity="0.9496254737783587"></circle><circle r="5.307054567413669" cx="670.9028705384547" cy="604.5234705914377" opacity="0.1309673199447078"></circle><circle r="9.710470011378566" cx="61.834289380166624" cy="551.3589244751922" opacity="0.8231652562369037"></circle><circle r="7.4506563825186625" cx="625.3594709086185" cy="216.08375749393713" opacity="0.866872013813401"></circle><circle r="8.391392362788164" cx="630.8407592978566" cy="608.0828511769263" opacity="0.37291404842543197"></circle><circle r="10.162548413520554" cx="529.5758090155045" cy="139.5649942737582" opacity="0.3726585119498719"></circle><circle r="9.100583405836687" cx="250.77811397859654" cy="400.5351718079322" opacity="0.5903854711259696"></circle><circle r="11.752299653720176" cx="352.30731422975265" cy="350.84438002628343" opacity="0.6697253038416655"></circle><circle r="5.946339291565663" cx="164.34956632856367" cy="211.7476497439331" opacity="0.8157935064239311"></circle><circle r="7.286862092859472" cx="783.451483068918" cy="220.8276680382877" opacity="0.9516744027688941"></circle><circle r="6.869464768687941" cx="377.53331586997473" cy="223.35042105117046" opacity="0.42309105903061617"></circle><circle r="13.643147539956786" cx="150.99464889292048" cy="492.42439243550365" opacity="0.9704241119262175"></circle><circle r="7.6946671696335045" cx="677.8262188660607" cy="17.414671001281384" opacity="0.3105051716428746"></circle><circle r="7.909544508492774" cx="20.936769794089386" cy="663.0651709445741" opacity="0.3244889116803037"></circle><circle r="6.060173839122068" cx="195.24306273153604" cy="20.706328261946055" opacity="0.5587790877809564"></circle><circle r="8.353908152084657" cx="57.06642380867536" cy="692.0593629763547" opacity="0.40936364512799717"></circle><circle r="10.094434267291112" cx="136.40886706211177" cy="719.749572907203" opacity="0.2573082443419299"></circle><circle r="9.146864205118957" cx="421.36160401644736" cy="690.6313481452954" opacity="0.6062305408352694"></circle><circle r="6.967357530978316" cx="604.8826631798338" cy="411.7683253954615" opacity="0.6981777327104888"></circle><circle r="7.319531049254244" cx="156.1474709306903" cy="361.0441824288985" opacity="0.1422733505454682"></circle><circle r="4.666401258992007" cx="167.828901475637" cy="138.2409496263512" opacity="0.5826396362767219"></circle><circle r="8.238559489358677" cx="399.22391255415545" cy="154.3808286118337" opacity="0.4811117177828925"></circle><circle r="7.138269728588905" cx="731.6678294954659" cy="377.40908867664973" opacity="0.766545334661368"></circle><circle r="6.399910311066215" cx="693.5447160924972" cy="503.57747133545405" opacity="0.7967901306424648"></circle><circle r="9.939321432979854" cx="486.84812477796265" cy="528.7021904323578" opacity="0.8332609003657951"></circle><circle r="8.033150129052139" cx="224.17711069167376" cy="708.9754246814848" opacity="0.5458805956519867"></circle><circle r="13.717147092619566" cx="413.1686441955012" cy="568.4200046753624" opacity="0.6812447373669822"></circle><circle r="4.748684437054301" cx="121.62529225355085" cy="144.38937054031956" opacity="0.20461053648380895"></circle><circle r="7.212166003607114" cx="355.82694423306725" cy="281.59618411232924" opacity="0.3145766900852799"></circle><circle r="11.608703551118285" cx="771.1057152916878" cy="703.4989583440661" opacity="0.5038757921487543"></circle><circle r="8.268572650096573" cx="479.63745682025115" cy="466.2483624381879" opacity="0.49645635895744256"></circle><circle r="13.936116583221962" cx="413.4502273427014" cy="763.081263468877" opacity="0.46462801424961453"></circle><circle r="8.726541881584478" cx="225.281245512689" cy="109.11653930057723" opacity="0.6940969385332495"></circle><circle r="5.320902133258438" cx="778.1257345654062" cy="178.23991277426958" opacity="0.16298634439121998"></circle><circle r="11.919933608254288" cx="575.3896721889403" cy="190.62676929158533" opacity="0.6237890549017556"></circle><circle r="12.867199790121871" cx="420.94445058978397" cy="87.07147454716832" opacity="0.41296664382916926"></circle><circle r="7.572137939137533" cx="104.2144488892645" cy="683.0211722518573" opacity="0.8329793690559739"></circle><circle r="5.546189598978947" cx="262.62402509652327" cy="704.7150067691804" opacity="0.9019713130719663"></circle><circle r="10.360641988051878" cx="340.948639750035" cy="651.4898849395735" opacity="0.2859426418525408"></circle><circle r="6.982120377894893" cx="59.465813214284694" cy="22.807166025057434" opacity="0.8052740308524381"></circle><circle r="6.284568431720074" cx="154.77007625599103" cy="779.8940938248558" opacity="0.8727476121502674"></circle><circle r="8.55164414602426" cx="322.99626540485366" cy="477.9127782753708" opacity="0.655332475703201"></circle><circle r="5.307636234408699" cx="246.17058504922815" cy="533.7994614703881" opacity="0.39730095392317366"></circle><circle r="6.904173206924906" cx="727.1456160121066" cy="180.03369663478463" opacity="0.6821202097275647"></circle><circle r="6.485474989536911" cx="238.37423401012765" cy="469.083179979719" opacity="0.2092275984497968"></circle><circle r="3.5914758903968607" cx="327.7910831262708" cy="787.7670041244146" opacity="0.3447167945042886"></circle><circle r="7.2392368461572225" cx="280.53745603723604" cy="774.2539131628721" opacity="0.5912599653460905"></circle><circle r="6.4536927031938145" cx="646.7773682752216" cy="491.8988904374456" opacity="0.3995299182740286"></circle><circle r="8.953339474969386" cx="666.9803767932345" cy="338.3949486664503" opacity="0.12437524321072459"></circle><circle r="9.311030804111704" cx="19.192431857018498" cy="279.0613178214173" opacity="0.8680692983084415"></circle><circle r="7.855056938169946" cx="325.6294635859457" cy="238.38527025663166" opacity="0.3131667844105176"></circle><circle r="4.0785017797687795" cx="491.6838074042078" cy="759.5200493263857" opacity="0.47541971517887605"></circle><circle r="6.961580476534374" cx="215.47450769849536" cy="559.4319047294166" opacity="0.21368268847355354"></circle><circle r="12.745175116070115" cx="195.60749024775393" cy="659.2473309376028" opacity="0.3445276875320101"></circle><circle r="7.428024494892415" cx="523.8786846983081" cy="727.0220782718657" opacity="0.3461392265689928"></circle><circle r="9.901467959878397" cx="318.9826444385913" cy="55.08893262750476" opacity="0.575372745151329"></circle><circle r="9.851073479946901" cx="417.2639964183666" cy="267.582793820989" opacity="0.878964726187427"></circle><circle r="8.388646797223394" cx="762.4397885737792" cy="769.558211595422" opacity="0.22415569565368926"></circle><circle r="11.279234202007498" cx="28.718059935488824" cy="490.5123671517474" opacity="0.539465759184745"></circle><circle r="10.373692829066334" cx="30.68767495681543" cy="418.30762082591275" opacity="0.4905790692209391"></circle><circle r="5.059543316946814" cx="149.8770583802362" cy="173.98201879479834" opacity="0.7239556403337853"></circle><circle r="4.696554501732896" cx="476.65254401264775" cy="425.03352216451026" opacity="0.7309559698856248"></circle><circle r="8.820686183575027" cx="438.3148259198534" cy="183.32575115878618" opacity="0.4558677791799073"></circle><circle r="5.521109309646516" cx="431.1966712369322" cy="226.1632545470715" opacity="0.7581544645237198"></circle><circle r="9.477754763483404" cx="666.4751292980969" cy="285.4795039488549" opacity="0.7776166461668897"></circle><circle r="5.0773452141531035" cx="759.5076202554997" cy="410.08575047684883" opacity="0.8938744319607643"></circle><circle r="7.408591320070192" cx="572.3303562215691" cy="770.4124985631901" opacity="0.4611862259414715"></circle><circle r="5.512477414972844" cx="349.1806357486196" cy="761.4712107043515" opacity="0.3790147306203101"></circle><circle r="10.09995620285807" cx="17.50846185118255" cy="328.32484007167614" opacity="0.402917513736585"></circle><circle r="6.68773574846918" cx="781.7510923769377" cy="360.4569440088873" opacity="0.8064419696711576"></circle><circle r="7.9608600274246895" cx="292.4003634929368" cy="729.7772909379788" opacity="0.9405357516764756"></circle><circle r="4.072973030007296" cx="608.7781784740199" cy="489.00487725867737" opacity="0.2627297798837008"></circle><circle r="11.282017414666278" cx="295.00791696689953" cy="371.87305518019167" opacity="0.3342775071952142"></circle><circle r="8.419597609076078" cx="183.53470908493256" cy="744.6128161362657" opacity="0.8939116333157178"></circle><circle r="8.834719997863298" cx="239.35944815067134" cy="219.27625831455683" opacity="0.966969394261514"></circle><circle r="4.407114475402415" cx="575.2715570624684" cy="512.9838356609762" opacity="0.36475341327488486"></circle><circle r="4.945614470077624" cx="533.7611587429942" cy="511.5070639592141" opacity="0.5653039182115847"></circle><circle r="6.87833545234829" cx="495.84871383307967" cy="392.20043268215085" opacity="0.8955731553893224"></circle><circle r="5.8821508849052595" cx="302.9740088988403" cy="684.8049554335507" opacity="0.3513901573031202"></circle><circle r="7.713331370432216" cx="429.67414106151483" cy="635.3709360915132" opacity="0.6122817890700178"></circle><circle r="8.108297068146578" cx="570.3075995852303" cy="386.2466126853947" opacity="0.8652487682005164"></circle><circle r="8.584281566823325" cx="266.7058117429681" cy="81.44979617844074" opacity="0.4275375582423637"></circle><circle r="12.706106943883192" cx="104.75531373916351" cy="523.0159953207676" opacity="0.7367545218259992"></circle><circle r="7.996860461444175" cx="202.33164155163408" cy="379.7519628558967" opacity="0.9732365393934032"></circle><circle r="10.572159637853428" cx="244.2312136564328" cy="620.147444969682" opacity="0.5050055234194227"></circle><circle r="9.452603382714377" cx="157.57812739314892" cy="565.1883985234055" opacity="0.4896738164993867"></circle><circle r="7.171978075841284" cx="12.984416125819031" cy="215.74073899207605" opacity="0.8551225423594075"></circle><circle r="6.209341384945409" cx="95.34385952545662" cy="122.4747053342616" opacity="0.9299439290071551"></circle><circle r="6.637637247528742" cx="706.9789298427964" cy="580.603691948777" opacity="0.21224614964886468"></circle><circle r="7.103145024760795" cx="738.2069857266534" cy="583.7016911364751" opacity="0.12845193261059973"></circle><circle r="5.819132339727273" cx="647.5293520261748" cy="531.702651176787" opacity="0.8149975332708845"></circle><circle r="7.312254538046327" cx="286.0498097553991" cy="539.0943805675759" opacity="0.8237650281886191"></circle><circle r="7.4760896557823235" cx="750.3987251577415" cy="300.45667176771207" opacity="0.7574042822655829"></circle><circle r="9.7346527722815" cx="381.88812315744286" cy="506.8213591938942" opacity="0.6202001757879276"></circle><circle r="5.193863140089187" cx="535.5034381426916" cy="444.02988243328434" opacity="0.8350992034947325"></circle><circle r="5.068256602938048" cx="56.685383859215705" cy="266.7387790853541" opacity="0.23495448646346156"></circle><circle r="10.905510301449947" cx="384.8312990431404" cy="626.7485603538106" opacity="0.8173645130517994"></circle><circle r="11.164480421340013" cx="154.171040325861" cy="431.6294348046631" opacity="0.7113482400848838"></circle><circle r="10.777646375842103" cx="129.82163569664894" cy="39.41559284713957" opacity="0.458288299630224"></circle><circle r="9.675543098609047" cx="96.54831766458963" cy="85.88890567392282" opacity="0.9896399109244813"></circle><circle r="8.575798757583174" cx="739.052343635395" cy="518.3566746685082" opacity="0.8478427053634435"></circle><circle r="7.46414135621573" cx="164.05072209114738" cy="613.6446698247745" opacity="0.9888304664630622"></circle><circle r="5.90475434843655" cx="257.6884112217606" cy="661.8942251926995" opacity="0.8705241959614014"></circle><circle r="6.7415427488019155" cx="50.70287013759084" cy="604.284599695485" opacity="0.4195021719847327"></circle><circle r="6.083384619843182" cx="697.059008969362" cy="167.08443550996384" opacity="0.8423894349824893"></circle><circle r="10.617116679014314" cx="363.87065081392075" cy="103.9250266412364" opacity="0.3485716533931912"></circle><circle r="5.434695788873105" cx="99.50150844349078" cy="783.8105486406258" opacity="0.6898826362445036"></circle><circle r="7.482822309340227" cx="300.12939906376096" cy="278.0005059664669" opacity="0.8356885662822041"></circle><circle r="10.27134049607966" cx="708.7206169631544" cy="688.1227928932793" opacity="0.9646845585150383"></circle><circle r="7.96806723350765" cx="133.00666152979926" cy="633.7856703826602" opacity="0.1850695920170337"></circle><circle r="7.497274421993119" cx="91.1661962511135" cy="616.7227853403083" opacity="0.8146765317065018"></circle><circle r="8.64608380140339" cx="128.37338765685652" cy="315.16853094354656" opacity="0.5912387878003814"></circle><circle r="9.286948338602858" cx="519.6380878101602" cy="284.2276549795614" opacity="0.1773366091561463"></circle><circle r="8.646040126234933" cx="470.40169734725106" cy="665.3639952438006" opacity="0.9579536947887892"></circle><circle r="6.358734597034341" cx="247.5661636676196" cy="747.1643943865174" opacity="0.8216240827782564"></circle><circle r="8.880140617886322" cx="331.4051730137703" cy="526.8146913833575" opacity="0.21811714392028747"></circle><circle r="7.745973233266023" cx="124.2442149405433" cy="758.4973323757179" opacity="0.7118230016888081"></circle><circle r="11.956819091094523" cx="84.91372463868933" cy="731.7983220641281" opacity="0.7516661268460474"></circle><circle r="5.415868956517798" cx="652.3904660005167" cy="778.5955146696325" opacity="0.2714126246834626"></circle><circle r="7.485652185970222" cx="279.3507732870113" cy="219.68447233843628" opacity="0.17085654363471425"></circle><circle r="6.6350355268708086" cx="211.46743852245237" cy="249.2652328718455" opacity="0.566471292155022"></circle><circle r="6.000023614975513" cx="515.5349034484074" cy="627.3849073139655" opacity="0.7041817011796"></circle><circle r="6.467928654639326" cx="694.7043087216138" cy="415.0000311784164" opacity="0.4931860382655072"></circle><circle r="8.464781385276734" cx="546.1801044359736" cy="79.34485356502896" opacity="0.948418454270436"></circle><circle r="8.298998974627505" cx="306.34618651739703" cy="320.6043761291999" opacity="0.7494776958707314"></circle><circle r="3.970138584151574" cx="588.838358562783" cy="447.92261289158836" opacity="0.6932659777356801"></circle><circle r="13.986568690716592" cx="96.63699199556581" cy="382.99662481043634" opacity="0.5798725227612788"></circle><circle r="3.5536414927256326" cx="143.2832856186215" cy="139.534230150617" opacity="0.3850614512923096"></circle><circle r="8.707385334147649" cx="87.57746218005026" cy="217.48115421094698" opacity="0.6954434312501412"></circle><circle r="10.144932631687434" cx="432.2942060405278" cy="430.43461063350287" opacity="0.1796897970371623"></circle><circle r="8.260062138107202" cx="717.3166631264047" cy="460.205170160965" opacity="0.19999906571504958"></circle><circle r="10.907428339755917" cx="65.99837718437483" cy="321.1864907650696" opacity="0.2694374378489567"></circle><circle r="4.282041698020181" cx="36.27680983840547" cy="785.559889456889" opacity="0.6138834746658063"></circle><circle r="9.14252585569232" cx="746.4918351182741" cy="211.46782007003958" opacity="0.38575685998602194"></circle><circle r="8.97207136255532" cx="345.6570005606981" cy="400.5116056489317" opacity="0.9794005294958293"></circle><circle r="9.48259041880733" cx="529.8667037431179" cy="356.8646548011202" opacity="0.3192172816559892"></circle><circle r="5.033545201254673" cx="59.3889346593155" cy="636.8330194015643" opacity="0.39037490209266235"></circle><circle r="5.822311227768987" cx="476.3038058486561" cy="786.4792604445452" opacity="0.5338222157581055"></circle><circle r="6.763156003483621" cx="684.4588609169845" cy="551.5562335598378" opacity="0.8811594189229297"></circle><circle r="11.760906197447481" cx="30.563274152782153" cy="69.29184777351746" opacity="0.7966423846070537"></circle><circle r="5.923200276218117" cx="684.2429423984854" cy="372.9345126250079" opacity="0.9082266820174866"></circle><circle r="7.811722434513998" cx="766.770825401257" cy="640.0733711276613" opacity="0.6348506710110566"></circle><circle r="7.759678769180096" cx="435.43480740609067" cy="501.89466531032815" opacity="0.7003221470301473"></circle><circle r="6.120045806069362" cx="374.4503434854291" cy="56.319683143163985" opacity="0.5623386548282873"></circle><circle r="5.904044905827239" cx="469.94468540692515" cy="619.6299282347182" opacity="0.6627576022895798"></circle><circle r="10.164975864869652" cx="257.6871584865367" cy="573.240866690994" opacity="0.252432667474476"></circle><circle r="6.0729818462784735" cx="641.302488424233" cy="567.2206751622438" opacity="0.6359970376396735"></circle><circle r="6.116768675923602" cx="513.7005843918408" cy="485.0032714854684" opacity="0.46893429004620246"></circle><circle r="6.225434623774054" cx="251.73612809145064" cy="172.06337546117888" opacity="0.8853064797466915"></circle><circle r="9.158837841331058" cx="769.6613234315474" cy="136.3740316969347" opacity="0.15675043682517098"></circle><circle r="6.649873585182219" cx="545.9418049238965" cy="653.8496409088814" opacity="0.8787864862322455"></circle><circle r="5.775650495058826" cx="463.0907069365472" cy="376.3960089984185" opacity="0.3158672085926811"></circle><circle r="7.408856983729093" cx="573.8084057565337" cy="697.1375708747846" opacity="0.640177551574998"></circle><circle r="6.117138240201173" cx="529.0796959319661" cy="407.9646705690711" opacity="0.3484095263023018"></circle><circle r="11.847079859866763" cx="475.48734814235394" cy="264.3879085598827" opacity="0.6617554560211898"></circle><circle r="9.947909292446036" cx="88.59293196675921" cy="160.39801934519687" opacity="0.4251765490849484"></circle><circle r="12.017893976422332" cx="705.3721803780484" cy="634.1851744126863" opacity="0.16412362927673413"></circle><circle r="9.55999312123877" cx="482.29430347776116" cy="340.2620734846731" opacity="0.9729675106454508"></circle><circle r="9.62032453130126" cx="315.6897059427394" cy="192.12359758455432" opacity="0.7053911753646753"></circle><circle r="10.022578209830272" cx="399.3181851885695" cy="313.9316942533319" opacity="0.696743744897954"></circle><circle r="9.493757683365622" cx="95.11838368812451" cy="268.7446902368873" opacity="0.8949904708912754"></circle><circle r="8.56352509543717" cx="266.86442535561315" cy="25.08909328938906" opacity="0.3380824702347194"></circle><circle r="7.763283330728162" cx="654.2286474568258" cy="159.24728632301156" opacity="0.5698866576790043"></circle><circle r="8.018466652078805" cx="462.0137902481747" cy="137.52582068660197" opacity="0.13344391473648162"></circle><circle r="7.599402337744202" cx="198.29545866605145" cy="314.22349266521724" opacity="0.22210048523155518"></circle><circle r="9.626362846530089" cx="185.90619881422037" cy="533.3540218579819" opacity="0.4736951266877989"></circle><circle r="10.338622729986012" cx="354.84635335820224" cy="573.2105893946416" opacity="0.966461828612659"></circle><circle r="16.475238443771307" cx="82.8169469569574" cy="456.15665569055466" opacity="0.8134643838812768"></circle><circle r="12.4104428407412" cx="449.9501245193783" cy="26.743534063907315" opacity="0.7122604498955534"></circle><circle r="3.7001321268507668" cx="554.6548759450811" cy="494.2923244699457" opacity="0.8606480646309015"></circle><circle r="7.910336838863396" cx="609.9324357458769" cy="283.9482767596703" opacity="0.9051332275693352"></circle><circle r="8.486593116992976" cx="206.08369340553975" cy="195.3259225911814" opacity="0.3526202102929251"></circle><circle r="12.71938183578227" cx="648.0663521705264" cy="436.92054176491877" opacity="0.9863669321135267"></circle><circle r="5.942109161344642" cx="20.909643323452404" cy="718.7565351175663" opacity="0.3999432447026967"></circle><circle r="8.900810113326008" cx="481.8703878132852" cy="78.73932909882161" opacity="0.37300984900920386"></circle><circle r="9.300855003898278" cx="473.969385591589" cy="576.1166947028503" opacity="0.33319525924581284"></circle><circle r="6.701032626149216" cx="191.9141568372696" cy="62.11962008339122" opacity="0.265229098205958"></circle><circle r="8.423104516335744" cx="142.29130999417768" cy="669.7725994017992" opacity="0.907143516800902"></circle><circle r="11.607354743893612" cx="590.2856819562087" cy="632.0466634938209" opacity="0.3152765037963602"></circle><circle r="6.2949560055261475" cx="190.64909855322898" cy="783.2202027847859" opacity="0.63396775673595"></circle><circle r="6.366769319562152" cx="32.238966380489195" cy="368.5334063596845" opacity="0.6828164012486219"></circle><circle r="9.427418810024285" cx="303.0309240435928" cy="580.1670266015061" opacity="0.9281222989603113"></circle><circle r="7.342149435192784" cx="39.72533232658529" cy="755.0916338027903" opacity="0.2395311157470344"></circle><circle r="11.764427323582112" cx="734.840739752671" cy="32.55845934083546" opacity="0.6208678814284873"></circle><circle r="6.685350453700202" cx="478.5141796580725" cy="705.2713581962465" opacity="0.15114098283220706"></circle><circle r="4.8926094530298325" cx="782.9198820962906" cy="590.060040925263" opacity="0.3068932216792187"></circle><circle r="7.059707343336388" cx="781.1506046941512" cy="32.38911240084389" opacity="0.4727688131712533"></circle><circle r="6.268566684951981" cx="674.6268724917461" cy="60.926302804728294" opacity="0.4249423926776561"></circle><circle r="11.762596445460927" cx="559.9376306174978" cy="315.12814055478776" opacity="0.33976131673544785"></circle><circle r="14.240139441666324" cx="639.8021332560363" cy="103.87534264295554" opacity="0.2931748905057758"></circle><circle r="7.114820224320666" cx="378.3234100599399" cy="703.6757456288426" opacity="0.4841274480535781"></circle><circle r="11.516927754371766" cx="320.6559684513064" cy="132.74717663287979" opacity="0.707372952986669"></circle><circle r="8.216516649713787" cx="776.6967363465236" cy="441.91942845148975" opacity="0.703934987999343"></circle><circle r="5.00596174066523" cx="783.6388620193426" cy="271.5319209624395" opacity="0.8207059086734423"></circle><circle r="6.0317830090532585" cx="243.92209630321753" cy="295.6989763374036" opacity="0.21987305645951455"></circle><circle r="7.3476810247489635" cx="48.47868168538898" cy="182.9554967085561" opacity="0.8106648851659677"></circle><circle r="13.463851446468977" cx="411.5124214493929" cy="368.62248921757805" opacity="0.362204256406482"></circle><circle r="12.700153310781495" cx="758.9415667215485" cy="86.89188139269018" opacity="0.584793579911577"></circle><circle r="9.93416364478314" cx="302.99759268927585" cy="623.32554003363" opacity="0.13518531178649212"></circle><circle r="8.403196638613576" cx="117.31671639201912" cy="196.31750489716683" opacity="0.12656985030166398"></circle><circle r="6.975982890763124" cx="774.5835156146373" cy="483.9499153336258" opacity="0.6127733286283066"></circle><circle r="9.279807145695365" cx="395.7344127181115" cy="22.794158193087323" opacity="0.4442919467518579"></circle><circle r="13.548966154288127" cx="643.4217393717198" cy="665.2753481845821" opacity="0.9941811445391141"></circle><circle r="10.72842722214805" cx="275.7689155400472" cy="136.80884181543067" opacity="0.9756920315658599"></circle><circle r="10.17416468277521" cx="572.8752930075156" cy="248.48575833965035" opacity="0.4513878379981563"></circle><circle r="5.976703044362914" cx="570.0909339395367" cy="587.9941792128229" opacity="0.8475275881706624"></circle><circle r="5.074794003570168" cx="761.4999572103886" cy="556.4383543628164" opacity="0.8334666500754406"></circle><circle r="5.170866048265685" cx="76.9519699543682" cy="658.2028124833948" opacity="0.5520952935259656"></circle><circle r="8.667581805394827" cx="145.40226807523837" cy="99.05782521971746" opacity="0.9600551435251902"></circle><circle r="10.735499621480628" cx="175.37676020268543" cy="267.2771048761464" opacity="0.8459417755285008"></circle><circle r="10.356145033434844" cx="536.6231869929451" cy="558.7293611501868" opacity="0.6393188729938956"></circle><circle r="8.131632051328324" cx="275.9168259150108" cy="473.25990824899117" opacity="0.20375929902245696"></circle><circle r="6.567344911009082" cx="527.5369380919408" cy="23.59399572189758" opacity="0.11816052002284907"></circle><circle r="7.477244939260586" cx="596.6356240133528" cy="139.80472223280626" opacity="0.4192456508509299"></circle><circle r="6.2502363915042976" cx="670.3322489953466" cy="212.40670840929957" opacity="0.7059496001721203"></circle><circle r="9.325825584021905" cx="259.9004077419397" cy="260.9721336361681" opacity="0.7931984049484379"></circle><circle r="6.816217163706479" cx="220.9003554911632" cy="438.00921805439833" opacity="0.5618261782826816"></circle><circle r="9.117811035053574" cx="457.1828697599434" cy="311.66204802859477" opacity="0.16537628454979048"></circle><circle r="8.748619335294617" cx="630.201879653672" cy="725.6759694851065" opacity="0.6572439507781509"></circle></g></svg>